<?xml version="1.0" encoding="UTF-8" standalone="no"?>
<!-- Created with Inkscape (http://www.inkscape.org/) -->

<svg
   width="183mm"
   height="42mm"
   viewBox="0 0 183 42"
   version="1.1"
   id="svg1"
   xml:space="preserve"
   inkscape:version="1.3 (0e150ed6c4, 2023-07-21)"
   sodipodi:docname="fondo-cabecera-m.svg"
   xmlns:inkscape="http://www.inkscape.org/namespaces/inkscape"
   xmlns:sodipodi="http://sodipodi.sourceforge.net/DTD/sodipodi-0.dtd"
   xmlns:xlink="http://www.w3.org/1999/xlink"
   xmlns="http://www.w3.org/2000/svg"
   xmlns:svg="http://www.w3.org/2000/svg"><sodipodi:namedview
     id="namedview1"
     pagecolor="#ffffff"
     bordercolor="#000000"
     borderopacity="0.25"
     inkscape:showpageshadow="2"
     inkscape:pageopacity="0.0"
     inkscape:pagecheckerboard="0"
     inkscape:deskcolor="#d1d1d1"
     inkscape:document-units="mm"
     inkscape:zoom="1.0343421"
     inkscape:cx="461.1627"
     inkscape:cy="-142.60272"
     inkscape:window-width="1920"
     inkscape:window-height="1017"
     inkscape:window-x="1912"
     inkscape:window-y="-8"
     inkscape:window-maximized="1"
     inkscape:current-layer="layer1" /><defs
     id="defs1"><linearGradient
       id="linearGradient10"
       inkscape:collect="always"><stop
         style="stop-color:#001b00;stop-opacity:1;"
         offset="0"
         id="stop10" /><stop
         style="stop-color:#008000;stop-opacity:1;"
         offset="1"
         id="stop11" /></linearGradient><clipPath
       clipPathUnits="userSpaceOnUse"
       id="clipPath12"><path
         id="path12"
         style="display:block;fill:#ffffff;fill-opacity:1;stroke-width:0.264583"
         d="m 69.135207,16.17537 c 0.785005,-2.069338 2.722155,-3.728431 4.793239,-4.160171 3.894622,-0.811876 8.049318,-0.704239 10.747029,-0.0691 2.69771,0.635139 3.938672,1.298395 5.246804,2.65781 1.308131,1.359415 2.139621,3.405344 2.269077,4.941931 0.129458,1.536587 -0.2945,3.395275 -0.989158,3.683732 -0.694656,0.288457 -7.241834,-1.389751 -10.907864,-1.406763 -3.442549,-0.01598 -9.4996,1.069027 -10.254742,1.225886 -1.608063,0.334028 -1.689391,-4.803987 -0.904385,-6.873325 z"
         sodipodi:nodetypes="zszzzzasz"
         clip-path="none" /></clipPath><inkscape:path-effect
       effect="powerclip"
       id="path-effect12"
       is_visible="true"
       lpeversion="1"
       inverse="true"
       flatten="false"
       hide_clip="false"
       message="Utilice la regla de relleno parimpar en el diálogo &lt;b&gt;Relleno y borde&lt;/b&gt; si el resultado no está aplanada después de convertir el recorte en trayectos." /><clipPath
       clipPathUnits="userSpaceOnUse"
       id="clipPath12-3"><path
         id="path12-1"
         style="display:none;fill:#ffffff;fill-opacity:1;stroke-width:0.264583"
         d="m 69.135207,16.17537 c 0.785005,-2.069338 2.722155,-3.728431 4.793239,-4.160171 3.894622,-0.811876 8.049318,-0.704239 10.747029,-0.0691 2.69771,0.635139 3.938672,1.298395 5.246804,2.65781 1.308131,1.359415 2.139621,3.405344 2.269077,4.941931 0.129458,1.536587 -0.2945,3.395275 -0.989158,3.683732 -0.694656,0.288457 -7.241834,-1.389751 -10.907864,-1.406763 -3.442549,-0.01598 -9.4996,1.069027 -10.254742,1.225886 -1.608063,0.334028 -1.689391,-4.803987 -0.904385,-6.873325 z"
         sodipodi:nodetypes="zszzzzasz"
         clip-path="none" /><path
         id="lpe_path-effect12"
         style="fill:#ffffff;fill-opacity:1;stroke-width:0.264583"
         class="powerclip"
         d="M 58.648009,3.3802364 H 99.980297 V 40.516245 H 58.648009 Z M 69.135207,16.17537 c -0.785006,2.069338 -0.703678,7.207353 0.904385,6.873325 0.755142,-0.156859 6.812193,-1.241866 10.254742,-1.225886 3.66603,0.01701 10.213208,1.69522 10.907864,1.406763 0.694658,-0.288457 1.118616,-2.147145 0.989158,-3.683732 -0.129456,-1.536587 -0.960946,-3.582516 -2.269077,-4.941931 -1.308132,-1.359415 -2.549094,-2.022671 -5.246804,-2.65781 -2.697711,-0.635139 -6.852407,-0.742776 -10.747029,0.0691 -2.071084,0.43174 -4.008234,2.090833 -4.793239,4.160171 z" /></clipPath><inkscape:path-effect
       effect="powerclip"
       id="path-effect12-3"
       is_visible="true"
       lpeversion="1"
       inverse="true"
       flatten="false"
       hide_clip="false"
       message="Utilice la regla de relleno parimpar en el diálogo &lt;b&gt;Relleno y borde&lt;/b&gt; si el resultado no está aplanada después de convertir el recorte en trayectos." /><clipPath
       clipPathUnits="userSpaceOnUse"
       id="clipPath13"><path
         id="path13"
         style="display:block;fill:#ffffff;fill-opacity:1;stroke-width:0.264583"
         d="m 68.914137,15.917174 c 0.785008,-2.069338 2.722155,-3.728431 4.793242,-4.160171 3.894619,-0.811876 8.049315,-0.704239 10.747026,-0.0691 2.697713,0.635139 3.938672,1.298395 5.246804,2.65781 1.308131,1.359415 2.139622,3.405344 2.269079,4.941931 0.129456,1.536587 -0.294499,3.395275 -0.989158,3.683732 -0.694658,0.288457 -7.241836,-1.389751 -10.907865,-1.406763 -3.442547,-0.01598 -9.499598,1.069027 -10.254742,1.225886 -1.608061,0.334028 -1.689392,-4.803987 -0.904386,-6.873325 z"
         sodipodi:nodetypes="zszzzzasz"
         clip-path="none" /></clipPath><inkscape:path-effect
       effect="powerclip"
       id="path-effect13"
       is_visible="true"
       lpeversion="1"
       inverse="true"
       flatten="false"
       hide_clip="false"
       message="Utilice la regla de relleno parimpar en el diálogo &lt;b&gt;Relleno y borde&lt;/b&gt; si el resultado no está aplanada después de convertir el recorte en trayectos." /><clipPath
       clipPathUnits="userSpaceOnUse"
       id="clipath_lpe_path-effect12-3"><path
         id="path1"
         style="display:block;fill:#ffffff;fill-opacity:1;stroke-width:0.264583"
         d="m 69.135207,16.17537 c 0.785005,-2.069338 2.722155,-3.728431 4.793239,-4.160171 3.894622,-0.811876 8.049318,-0.704239 10.747029,-0.0691 2.69771,0.635139 3.938672,1.298395 5.246804,2.65781 1.308131,1.359415 2.139621,3.405344 2.269077,4.941931 0.129458,1.536587 -0.2945,3.395275 -0.989158,3.683732 -0.694656,0.288457 -7.241834,-1.389751 -10.907864,-1.406763 -3.442549,-0.01598 -9.4996,1.069027 -10.254742,1.225886 -1.608063,0.334028 -1.689391,-4.803987 -0.904385,-6.873325 z"
         sodipodi:nodetypes="zszzzzasz"
         clip-path="none" /></clipPath><inkscape:path-effect
       effect="powerclip"
       id="path-effect13-7"
       is_visible="true"
       lpeversion="1"
       inverse="true"
       flatten="false"
       hide_clip="false"
       message="Utilice la regla de relleno parimpar en el diálogo &lt;b&gt;Relleno y borde&lt;/b&gt; si el resultado no está aplanada después de convertir el recorte en trayectos." /><inkscape:path-effect
       effect="powerclip"
       id="path-effect12-1"
       is_visible="true"
       lpeversion="1"
       inverse="true"
       flatten="false"
       hide_clip="false"
       message="Utilice la regla de relleno parimpar en el diálogo &lt;b&gt;Relleno y borde&lt;/b&gt; si el resultado no está aplanada después de convertir el recorte en trayectos." /><clipPath
       clipPathUnits="userSpaceOnUse"
       id="clipPath12-7"><path
         id="path12-9"
         style="display:none;fill:#ffffff;fill-opacity:1;stroke-width:0.264583"
         d="m 69.135207,16.17537 c 0.785005,-2.069338 2.722155,-3.728431 4.793239,-4.160171 3.894622,-0.811876 8.049318,-0.704239 10.747029,-0.0691 2.69771,0.635139 3.938672,1.298395 5.246804,2.65781 1.308131,1.359415 2.139621,3.405344 2.269077,4.941931 0.129458,1.536587 -0.2945,3.395275 -0.989158,3.683732 -0.694656,0.288457 -7.241834,-1.389751 -10.907864,-1.406763 -3.442549,-0.01598 -9.4996,1.069027 -10.254742,1.225886 -1.608063,0.334028 -1.689391,-4.803987 -0.904385,-6.873325 z"
         sodipodi:nodetypes="zszzzzasz"
         clip-path="none" /><path
         id="lpe_path-effect12-4"
         style="fill:#ffffff;fill-opacity:1;stroke-width:0.264583"
         class="powerclip"
         d="M 58.648009,3.3802364 H 99.980297 V 40.516245 H 58.648009 Z M 69.135207,16.17537 c -0.785006,2.069338 -0.703678,7.207353 0.904385,6.873325 0.755142,-0.156859 6.812193,-1.241866 10.254742,-1.225886 3.66603,0.01701 10.213208,1.69522 10.907864,1.406763 0.694658,-0.288457 1.118616,-2.147145 0.989158,-3.683732 -0.129456,-1.536587 -0.960946,-3.582516 -2.269077,-4.941931 -1.308132,-1.359415 -2.549094,-2.022671 -5.246804,-2.65781 -2.697711,-0.635139 -6.852407,-0.742776 -10.747029,0.0691 -2.071084,0.43174 -4.008234,2.090833 -4.793239,4.160171 z" /></clipPath><clipPath
       clipPathUnits="userSpaceOnUse"
       id="clipPath13-2"><path
         id="path13-9"
         style="display:none;fill:#ffffff;fill-opacity:1;stroke-width:0.264583"
         d="m 68.914137,15.917174 c 0.785008,-2.069338 2.722155,-3.728431 4.793242,-4.160171 3.894619,-0.811876 8.049315,-0.704239 10.747026,-0.0691 2.697713,0.635139 3.938672,1.298395 5.246804,2.65781 1.308131,1.359415 2.139622,3.405344 2.269079,4.941931 0.129456,1.536587 -0.294499,3.395275 -0.989158,3.683732 -0.694658,0.288457 -7.241836,-1.389751 -10.907865,-1.406763 -3.442547,-0.01598 -9.499598,1.069027 -10.254742,1.225886 -1.608061,0.334028 -1.689392,-4.803987 -0.904386,-6.873325 z"
         sodipodi:nodetypes="zszzzzasz"
         clip-path="none" /><path
         id="lpe_path-effect13"
         style="fill:#ffffff;fill-opacity:1;stroke-width:0.264583"
         class="powerclip"
         d="M 57.297476,2.3287233 H 100.66118 V 41.542915 H 57.297476 Z M 68.914137,15.917174 c -0.785006,2.069338 -0.703675,7.207353 0.904386,6.873325 0.755144,-0.156859 6.812195,-1.241866 10.254742,-1.225886 3.666029,0.01701 10.213207,1.69522 10.907865,1.406763 0.694659,-0.288457 1.118614,-2.147145 0.989158,-3.683732 -0.129457,-1.536587 -0.960948,-3.582516 -2.269079,-4.941931 -1.308132,-1.359415 -2.549091,-2.022671 -5.246804,-2.65781 -2.697711,-0.635139 -6.852407,-0.742776 -10.747026,0.0691 -2.071087,0.43174 -4.008234,2.090833 -4.793242,4.160171 z" /></clipPath><clipPath
       clipPathUnits="userSpaceOnUse"
       id="clipath_lpe_path-effect13-7"><path
         id="path2"
         style="display:block;fill:#ffffff;fill-opacity:1;stroke-width:0.264583"
         d="m 68.914137,15.917174 c 0.785008,-2.069338 2.722155,-3.728431 4.793242,-4.160171 3.894619,-0.811876 8.049315,-0.704239 10.747026,-0.0691 2.697713,0.635139 3.938672,1.298395 5.246804,2.65781 1.308131,1.359415 2.139622,3.405344 2.269079,4.941931 0.129456,1.536587 -0.294499,3.395275 -0.989158,3.683732 -0.694658,0.288457 -7.241836,-1.389751 -10.907865,-1.406763 -3.442547,-0.01598 -9.499598,1.069027 -10.254742,1.225886 -1.608061,0.334028 -1.689392,-4.803987 -0.904386,-6.873325 z"
         sodipodi:nodetypes="zszzzzasz"
         clip-path="none" /></clipPath><clipPath
       clipPathUnits="userSpaceOnUse"
       id="clipath_lpe_path-effect12-1"><path
         id="path3"
         style="display:block;fill:#ffffff;fill-opacity:1;stroke-width:0.264583"
         d="m 69.135207,16.17537 c 0.785005,-2.069338 2.722155,-3.728431 4.793239,-4.160171 3.894622,-0.811876 8.049318,-0.704239 10.747029,-0.0691 2.69771,0.635139 3.938672,1.298395 5.246804,2.65781 1.308131,1.359415 2.139621,3.405344 2.269077,4.941931 0.129458,1.536587 -0.2945,3.395275 -0.989158,3.683732 -0.694656,0.288457 -7.241834,-1.389751 -10.907864,-1.406763 -3.442549,-0.01598 -9.4996,1.069027 -10.254742,1.225886 -1.608063,0.334028 -1.689391,-4.803987 -0.904385,-6.873325 z"
         sodipodi:nodetypes="zszzzzasz"
         clip-path="none" /></clipPath><linearGradient
       inkscape:collect="always"
       xlink:href="#linearGradient10"
       id="linearGradient11"
       x1="-10.464088"
       y1="39.494904"
       x2="510.74222"
       y2="39.494904"
       gradientUnits="userSpaceOnUse"
       gradientTransform="matrix(0.35149176,0,0,0.40398497,4.0397945,3.9433213)" /></defs><g
     inkscape:label="Capa 1"
     inkscape:groupmode="layer"
     id="layer1"><path
       id="rect7"
       style="fill:url(#linearGradient11);stroke-width:0.260865"
       d="m 0.36175375,0.180874 c 0,0 45.23455425,13.80454 68.22444025,17.998207 38.060206,6.942693 114.975286,11.779688 114.975286,11.779688 v 9.657695 L 0.36175375,33.580405 Z"
       sodipodi:nodetypes="cacccc" /></g></svg>
