<?xml version="1.0" encoding="UTF-8" standalone="no"?>
<!-- Created with Inkscape (http://www.inkscape.org/) -->

<svg
   width="53mm"
   height="63mm"
   viewBox="0 0 53 63"
   version="1.1"
   id="svg1"
   inkscape:version="1.3 (0e150ed6c4, 2023-07-21)"
   sodipodi:docname="logo.svg"
   xmlns:inkscape="http://www.inkscape.org/namespaces/inkscape"
   xmlns:sodipodi="http://sodipodi.sourceforge.net/DTD/sodipodi-0.dtd"
   xmlns:xlink="http://www.w3.org/1999/xlink"
   xmlns="http://www.w3.org/2000/svg"
   xmlns:svg="http://www.w3.org/2000/svg">
  <sodipodi:namedview
     id="namedview1"
     pagecolor="#000000"
     bordercolor="#000000"
     borderopacity="0.25"
     inkscape:showpageshadow="2"
     inkscape:pageopacity="0.0"
     inkscape:pagecheckerboard="0"
     inkscape:deskcolor="#d1d1d1"
     inkscape:document-units="mm"
     inkscape:zoom="0.7313903"
     inkscape:cx="247.47389"
     inkscape:cy="234.48493"
     inkscape:window-width="1920"
     inkscape:window-height="1017"
     inkscape:window-x="1912"
     inkscape:window-y="-8"
     inkscape:window-maximized="1"
     inkscape:current-layer="layer1" />
  <defs
     id="defs1">
    <inkscape:path-effect
       effect="powerclip"
       id="path-effect13"
       is_visible="true"
       lpeversion="1"
       inverse="true"
       flatten="false"
       hide_clip="false"
       message="Utilice la regla de relleno parimpar en el diálogo &lt;b&gt;Relleno y borde&lt;/b&gt; si el resultado no está aplanada después de convertir el recorte en trayectos." />
    <inkscape:path-effect
       effect="powerclip"
       id="path-effect12"
       is_visible="true"
       lpeversion="1"
       inverse="true"
       flatten="false"
       hide_clip="false"
       message="Utilice la regla de relleno parimpar en el diálogo &lt;b&gt;Relleno y borde&lt;/b&gt; si el resultado no está aplanada después de convertir el recorte en trayectos." />
    <linearGradient
       id="linearGradient8"
       inkscape:collect="always">
      <stop
         style="stop-color:#fff700;stop-opacity:1;"
         offset="0.19883041"
         id="stop8" />
      <stop
         style="stop-color:#009400;stop-opacity:1;"
         offset="0.62573099"
         id="stop9" />
    </linearGradient>
    <linearGradient
       id="linearGradient6"
       inkscape:collect="always">
      <stop
         style="stop-color:#087000;stop-opacity:1;"
         offset="0.5087719"
         id="stop6" />
      <stop
         style="stop-color:#ffe700;stop-opacity:0.95811516;"
         offset="1"
         id="stop7" />
    </linearGradient>
    <linearGradient
       inkscape:collect="always"
       xlink:href="#linearGradient6"
       id="linearGradient7"
       x1="101.7412"
       y1="46.357864"
       x2="121.33061"
       y2="46.357864"
       gradientUnits="userSpaceOnUse" />
    <linearGradient
       inkscape:collect="always"
       xlink:href="#linearGradient8"
       id="linearGradient9"
       x1="30.406885"
       y1="45.759315"
       x2="47.760601"
       y2="45.759315"
       gradientUnits="userSpaceOnUse" />
    <clipPath
       clipPathUnits="userSpaceOnUse"
       id="clipPath12">
      <path
         id="path12"
         style="display:none;fill:#ffffff;fill-opacity:1;stroke-width:0.264583"
         d="m 69.135207,16.17537 c 0.785005,-2.069338 2.722155,-3.728431 4.793239,-4.160171 3.894622,-0.811876 8.049318,-0.704239 10.747029,-0.0691 2.69771,0.635139 3.938672,1.298395 5.246804,2.65781 1.308131,1.359415 2.139621,3.405344 2.269077,4.941931 0.129458,1.536587 -0.2945,3.395275 -0.989158,3.683732 -0.694656,0.288457 -7.241834,-1.389751 -10.907864,-1.406763 -3.442549,-0.01598 -9.4996,1.069027 -10.254742,1.225886 -1.608063,0.334028 -1.689391,-4.803987 -0.904385,-6.873325 z"
         sodipodi:nodetypes="zszzzzasz"
         clip-path="none" />
      <path
         id="lpe_path-effect12"
         style="fill:#ffffff;fill-opacity:1;stroke-width:0.264583"
         class="powerclip"
         d="M 58.648009,3.3802364 H 99.980297 V 40.516245 H 58.648009 Z M 69.135207,16.17537 c -0.785006,2.069338 -0.703678,7.207353 0.904385,6.873325 0.755142,-0.156859 6.812193,-1.241866 10.254742,-1.225886 3.66603,0.01701 10.213208,1.69522 10.907864,1.406763 0.694658,-0.288457 1.118616,-2.147145 0.989158,-3.683732 -0.129456,-1.536587 -0.960946,-3.582516 -2.269077,-4.941931 -1.308132,-1.359415 -2.549094,-2.022671 -5.246804,-2.65781 -2.697711,-0.635139 -6.852407,-0.742776 -10.747029,0.0691 -2.071084,0.43174 -4.008234,2.090833 -4.793239,4.160171 z" />
    </clipPath>
    <clipPath
       clipPathUnits="userSpaceOnUse"
       id="clipPath13">
      <path
         id="path13"
         style="display:none;fill:#ffffff;fill-opacity:1;stroke-width:0.264583"
         d="m 68.914137,15.917174 c 0.785008,-2.069338 2.722155,-3.728431 4.793242,-4.160171 3.894619,-0.811876 8.049315,-0.704239 10.747026,-0.0691 2.697713,0.635139 3.938672,1.298395 5.246804,2.65781 1.308131,1.359415 2.139622,3.405344 2.269079,4.941931 0.129456,1.536587 -0.294499,3.395275 -0.989158,3.683732 -0.694658,0.288457 -7.241836,-1.389751 -10.907865,-1.406763 -3.442547,-0.01598 -9.499598,1.069027 -10.254742,1.225886 -1.608061,0.334028 -1.689392,-4.803987 -0.904386,-6.873325 z"
         sodipodi:nodetypes="zszzzzasz"
         clip-path="none" />
      <path
         id="lpe_path-effect13"
         style="fill:#ffffff;fill-opacity:1;stroke-width:0.264583"
         class="powerclip"
         d="M 57.297476,2.3287233 H 100.66118 V 41.542915 H 57.297476 Z M 68.914137,15.917174 c -0.785006,2.069338 -0.703675,7.207353 0.904386,6.873325 0.755144,-0.156859 6.812195,-1.241866 10.254742,-1.225886 3.666029,0.01701 10.213207,1.69522 10.907865,1.406763 0.694659,-0.288457 1.118614,-2.147145 0.989158,-3.683732 -0.129457,-1.536587 -0.960948,-3.582516 -2.269079,-4.941931 -1.308132,-1.359415 -2.549091,-2.022671 -5.246804,-2.65781 -2.697711,-0.635139 -6.852407,-0.742776 -10.747026,0.0691 -2.071087,0.43174 -4.008234,2.090833 -4.793242,4.160171 z" />
    </clipPath>
  </defs>
  <g
     inkscape:label="Capa 1"
     inkscape:groupmode="layer"
     id="layer1">
    <g
       id="g6"
       transform="translate(-70.569479,-6.5692999)">
      <path
         id="rect1-4"
         style="fill:#ffffff;fill-opacity:1;stroke-width:0.264583"
         d="m 118.0372,25.270611 c -2.49824,-4.317249 -6.60705,5.397372 -9.19694,11.284875 -2.58989,5.887503 -3.44791,8.046482 -4.56591,12.645319 -0.98687,4.059482 -2.43229,9.946989 -2.87028,13.219334 -0.43798,3.272345 0.21816,6.008953 0.76598,6.215056 0.54782,0.206102 3.06474,-5.060738 3.06474,-5.060738 0,0 3.16223,-7.420252 5.11318,-11.421229 1.95095,-4.000977 4.91484,-12.666713 4.91484,-12.666713 0,0 -2.2867,8.185593 -4.07544,13.092488 -1.78874,4.906895 -7.41732,15.826135 -6.82034,16.251255 0.59698,0.42512 10.23825,-10.148195 13.21531,-15.48386 2.97707,-5.335665 4.45255,-8.973149 4.26834,-14.505603 -0.18421,-5.532454 -1.31524,-9.252935 -3.81348,-13.570184 z"
         sodipodi:nodetypes="zzszzczczzzzz" />
      <path
         id="rect1-4-9"
         style="fill:url(#linearGradient7);stroke-width:0.256132"
         d="m 117.92432,25.949617 c -2.39954,-4.212303 -6.34604,5.266171 -8.83364,11.010557 -2.48757,5.744388 -3.31169,7.850883 -4.38554,12.337932 -0.94788,3.9608 -2.3362,9.705191 -2.75689,12.897989 -0.42067,3.192799 -0.15219,5.410694 0.37399,5.611788 0.52618,0.20109 2.85323,-5.299476 2.85323,-5.299476 0,0 3.7608,-8.053823 4.91118,-10.781841 1.15038,-2.728019 6.16771,-16.066783 6.16771,-16.066783 0,0 -2.82945,12.327661 -4.54752,17.115278 -1.71808,4.787614 -7.03387,14.537039 -6.46048,14.951825 0.57341,0.414786 9.11031,-9.720631 11.96975,-14.926595 2.8595,-5.205961 4.27668,-8.393271 4.09975,-13.791236 -0.17694,-5.397969 -0.99196,-8.847134 -3.39154,-13.059438 z"
         sodipodi:nodetypes="zzszzczczzzzz" />
    </g>
    <g
       id="g10"
       transform="translate(-27.919867,-3.4907429)">
      <path
         id="rect1"
         style="fill:#ffffff;fill-opacity:1;stroke-width:0.229333"
         d="m 33.288101,27.686219 c 2.213142,-3.661337 5.85307,4.577359 8.147408,9.570384 2.294338,4.993025 3.054443,6.823994 4.044863,10.724138 0.874263,3.442732 2.154737,8.435761 2.542738,11.210944 0.388002,2.775183 -0.193259,5.096023 -0.678563,5.270813 -0.485304,0.17479 -2.715017,-4.291869 -2.715017,-4.291869 0,0 -2.80136,-6.292906 -4.529673,-9.686021 -1.728314,-3.393116 -4.353972,-10.742282 -4.353972,-10.742282 0,0 2.025744,6.94197 3.610357,11.103369 1.584614,4.1614 6.570882,13.421699 6.042029,13.782231 -0.528854,0.360532 -9.069897,-8.606398 -11.707221,-13.131425 -2.637324,-4.525026 -3.944432,-7.609874 -3.781243,-12.301792 0.163189,-4.691918 1.165152,-7.847153 3.378294,-11.50849 z"
         sodipodi:nodetypes="zzszzczczzzzz" />
      <path
         id="rect1-0"
         style="fill:url(#linearGradient9);fill-opacity:1;stroke-width:0.217774"
         d="m 33.563514,28.184944 c 2.059632,-3.547645 5.447083,4.435224 7.582278,9.273205 2.135195,4.837984 3.068674,6.566878 3.990394,10.345914 0.813622,3.33583 2.095717,8.264253 2.456805,10.953261 0.361089,2.68901 0.09146,4.937782 -0.36018,5.107144 -0.451642,0.169363 -2.526695,-4.068158 -2.526695,-4.068158 0,0 -2.787926,-6.368815 -4.396358,-9.656568 -1.608432,-3.287754 -5.420457,-13.160821 -5.420457,-13.160821 0,0 2.620654,9.885489 4.095353,13.917668 1.4747,4.032181 6.612516,12.959712 6.120346,13.309049 -0.492172,0.349336 -8.712096,-8.56525 -11.166487,-12.949766 -2.454391,-4.384516 -3.670833,-7.373573 -3.518964,-11.919797 0.151869,-4.546227 1.084333,-7.603485 3.143965,-11.151131 z"
         sodipodi:nodetypes="zzszzczczzzzz" />
    </g>
    <g
       id="g11"
       transform="translate(-52.997817,-5.5535904)">
      <path
         id="rect2"
         style="fill:#ffffff;fill-opacity:1;stroke-width:0.264583"
         d="m 62.298598,28.259091 c -0.07534,-0.812332 3.669186,-4.400687 3.669186,-4.400687 0,0 -1.84514,-6.668391 -0.763505,-9.582032 1.081636,-2.913641 3.713089,-4.9469246 7.116224,-6.2324797 3.403135,-1.2855551 10.008817,-0.588289 13.086232,0.1512155 3.077415,0.7395045 4.12262,1.4388928 6.027587,3.1902522 1.904967,1.75136 3.860095,4.614426 4.19756,7.612211 0.337464,2.997784 -2.351953,9.291766 -2.351953,9.291766 l -3.320821,6.092661 -11.559914,0.235884 -9.163322,1.925033 c 0,0 -6.861935,-7.471492 -6.937274,-8.283824 z"
         sodipodi:nodetypes="zczzzzzccccz"
         clip-path="url(#clipPath13)"
         inkscape:path-effect="#path-effect13"
         inkscape:original-d="m 62.298598,28.259091 c -0.07534,-0.812332 3.669186,-4.400687 3.669186,-4.400687 0,0 -1.84514,-6.668391 -0.763505,-9.582032 1.081636,-2.913641 3.713089,-4.9469246 7.116224,-6.2324797 3.403135,-1.2855551 10.008817,-0.588289 13.086232,0.1512155 3.077415,0.7395045 4.12262,1.4388928 6.027587,3.1902522 1.904967,1.75136 3.860095,4.614426 4.19756,7.612211 0.337464,2.997784 -2.351953,9.291766 -2.351953,9.291766 l -3.320821,6.092661 -11.559914,0.235884 -9.163322,1.925033 c 0,0 -6.861935,-7.471492 -6.937274,-8.283824 z" />
      <path
         id="rect2-1"
         style="fill:#000000;fill-opacity:1;stroke-width:0.259663"
         d="m 63.649165,28.195338 c -0.07422,-0.794257 3.450478,-4.165752 3.450478,-4.165752 0,0 -1.771138,-6.262412 -0.705652,-9.111223 1.065487,-2.848808 3.375129,-4.614449 6.727457,-5.8713993 3.352321,-1.2569502 9.130167,-0.4806971 12.16164,0.2423521 3.031461,0.7230502 3.490774,0.8086032 5.367292,2.5209942 1.876529,1.712391 3.966633,4.227533 4.299066,7.158614 0.332422,2.93108 -2.131196,8.74183 -2.131196,8.74183 l -3.208246,5.738251 -10.978716,0.01951 -8.525191,2.04773 c 0,0 -6.382717,-6.526649 -6.456932,-7.320907 z"
         sodipodi:nodetypes="zczzzzzccccz"
         clip-path="url(#clipPath12)"
         inkscape:path-effect="#path-effect12"
         inkscape:original-d="m 63.649165,28.195338 c -0.07422,-0.794257 3.450478,-4.165752 3.450478,-4.165752 0,0 -1.771138,-6.262412 -0.705652,-9.111223 1.065487,-2.848808 3.375129,-4.614449 6.727457,-5.8713993 3.352321,-1.2569502 9.130167,-0.4806971 12.16164,0.2423521 3.031461,0.7230502 3.490774,0.8086032 5.367292,2.5209942 1.876529,1.712391 3.966633,4.227533 4.299066,7.158614 0.332422,2.93108 -2.131196,8.74183 -2.131196,8.74183 l -3.208246,5.738251 -10.978716,0.01951 -8.525191,2.04773 c 0,0 -6.382717,-6.526649 -6.456932,-7.320907 z"
         transform="matrix(1.0378525,0,0,1.0568938,-3.275508,-1.3081285)" />
    </g>
    <g
       id="g9"
       transform="translate(-38.711748,-42.77161)">
      <path
         id="rect6"
         style="fill:#ffffff;fill-opacity:1;stroke-width:0.264583"
         d="m 58.197769,77.743386 c -0.31458,-0.808688 -0.42999,-2.146011 0.0658,-2.602327 0.22381,-0.206007 0.88866,-0.682082 1.4597,-0.646474 0.21571,0.01345 0.84854,0.173893 0.84854,0.173893 0.29965,0.229531 0.55708,0.590418 0.72557,1.016401 0.17704,0.447615 0.14753,0.86725 0.14753,0.86725 l 0.73618,0.807931 -0.750582,-0.770443 c 0,0 0.456612,-0.545016 0.771342,-0.681741 0.405114,-0.17599 0.89302,-0.243565 1.31899,-0.126789 0.66011,0.180962 1.65804,1.211349 1.65804,1.211349 L 64.4347,76.34712 68.076579,74.350443 c 0,0 -0.50764,-0.322448 -0.66393,-0.568282 -0.17088,-0.268786 -0.25462,-0.920971 -0.25462,-0.920971 0.0389,-0.08463 0.18295,-0.0025 0.18295,-0.0025 0,0 0.14762,-0.631095 0.30812,-0.860963 0.22991,-0.329282 0.98359,-0.537574 1.18979,-0.574791 0.46292,-0.08355 0.817,0.354376 1.13607,0.65257 0.28235,0.26388 0.64407,0.964034 0.64407,0.964034 0,0 0.10754,1.372437 -0.10407,1.653732 -0.31846,0.423336 -2.128,2.279736 -3.31206,3.289158 -1.02476,0.873618 -2.9116,2.520408 -3.26434,2.379938 -0.19482,-0.07758 -1.79573,0.06996 -3.00207,-0.469367 -0.62569,-0.279729 -1.51773,-0.883497 -1.51773,-0.883497 0,0 -1.00843,-0.719692 -1.22099,-1.266118 z"
         sodipodi:nodetypes="asssscccaacccascssacsassca" />
      <path
         id="rect6-4"
         style="fill:#aa0000;fill-opacity:1;stroke-width:0.258235"
         d="m 111.76446,78.372492 c -0.30905,-0.784153 -0.42243,-2.080902 0.0646,-2.523375 0.21987,-0.199756 0.87302,-0.661388 1.43401,-0.62686 0.21192,0.01304 0.83361,0.168617 0.83361,0.168617 0.29438,0.222567 0.54728,0.572505 0.7128,0.985564 0.17393,0.434036 0.14494,0.840939 0.14494,0.840939 l 0.72322,0.783419 -0.59352,-0.818762 c 0,0 0.40141,-0.406438 0.65914,-0.51023 0.3889,-0.156614 0.84383,-0.235915 1.25056,-0.134248 0.63684,0.159182 1.62886,1.10677 1.62886,1.10677 l -0.54891,-0.658031 3.67824,-1.949026 c 0,0 -0.45275,-0.267243 -0.60702,-0.471908 -0.20774,-0.275614 -0.3858,-0.960858 -0.3858,-0.960858 0.0382,-0.08206 0.20234,-0.02511 0.20234,-0.02511 0,0 0.14502,-0.657167 0.3027,-0.880062 0.22586,-0.319291 0.90976,-0.48735 1.11233,-0.523438 0.45478,-0.08102 0.81065,0.366208 1.12738,0.666687 0.27145,0.257518 0.62144,0.934786 0.62144,0.934786 0,0 0.0491,1.330798 -0.15877,1.603559 -0.31286,0.410493 -2.16384,2.230629 -3.35552,3.223282 -1.0119,0.842902 -2.86037,2.443942 -3.2069,2.307734 -0.19139,-0.07523 -1.76413,0.06784 -2.94925,-0.455128 -0.61468,-0.271242 -1.49102,-0.856692 -1.49102,-0.856692 0,0 -0.99068,-0.697857 -1.1995,-1.227706 z"
         sodipodi:nodetypes="asssscccaacccascssacsasscaa"
         transform="translate(-53.541859,-0.6554841)" />
      <path
         id="rect5"
         style="fill:#ffffff;fill-opacity:1;stroke-width:0.264583"
         d="m 70.454252,76.29323 c 0.329773,-0.907912 0.614627,-1.548908 0.67181,-2.818898 0.05033,-1.117896 -0.12456,-1.695777 -0.31745,-2.103986 -0.519458,-1.099318 -0.746283,-1.347552 -1.46161,-1.517505 -0.958459,-0.227718 -1.937973,0.632338 -2.435637,1.129568 -0.556117,0.555633 -1.127174,1.38489 -1.689897,1.923934 -0.711489,0.681551 -1.414336,1.585951 -2.387926,1.43478 -0.441188,-0.0685 -1.033605,-0.581577 -1.396023,-1.048387 -0.278602,-0.358851 -0.398397,-0.696904 -0.348955,-0.744683 0,0 0.758913,0.725062 0.921308,0.825225 0.119797,0.07389 0.562023,0.507187 0.899843,0.472968 0.343626,-0.03481 0.782165,-0.544665 1.052428,-0.82802 0.555929,-0.582859 0.613233,-0.732733 1.124263,-1.355324 0.56436,-0.687559 1.527415,-2.366378 2.270285,-2.855648 0.6181,-0.407093 1.71721,-0.866507 2.43044,-0.668829 1.47396,0.408523 1.946426,2.053174 2.29502,3.542442 0.225151,0.961893 0.008,2.520443 -0.22715,3.750602 -0.33392,1.744489 -0.913811,3.479227 -2.112464,4.789939 -1.050019,1.148183 -1.872605,1.722185 -3.214595,2.295149 -1.26719,0.541026 -3.941841,1.283068 -3.941841,1.283068 0,0 2.84035,-1.423528 4.090054,-2.263703 1.081784,-0.727284 2.085517,-1.556303 2.69021,-2.672921 0.475889,-0.878772 0.492627,-0.93094 1.087887,-2.569771 z"
         sodipodi:nodetypes="ssssssssssssssssssscsss" />
      <path
         id="rect4"
         style="fill:#ffffff;fill-opacity:1;stroke-width:0.264583"
         d="m 58.855529,69.73644 c 1.22327,-0.585023 2.78839,-0.53807 4.06698,-0.08656 0.88137,0.311239 2.14434,1.806906 2.14434,1.806906 0,0 -2.39851,-0.424635 -3.5886,-0.273332 -0.87538,0.111292 -1.87283,0.239869 -2.50535,0.855165 -0.60722,0.590679 -0.85671,1.534955 -0.88704,2.381534 -0.0576,1.60715 0.74166,3.143859 1.35609,4.630037 0.70794,1.712354 2.66081,4.88058 2.66081,4.88058 0,0 -3.35647,-2.89552 -4.42293,-4.788729 -1.01617,-1.803931 -2.14952,-3.943888 -1.71833,-5.968941 0.3119,-1.464791 1.54296,-2.790518 2.89403,-3.43666 z"
         sodipodi:nodetypes="aacaaaacaaa" />
      <path
         id="rect4-6"
         style="fill:#aa0000;fill-opacity:1;stroke-width:0.25269"
         d="m 58.783374,69.849051 c 1.219185,-0.594336 2.778303,-0.556801 4.066824,-0.133292 0.845374,0.277856 2.096009,1.653331 2.096009,1.653331 0,0 -2.533841,-0.40426 -3.784066,-0.221486 -0.813571,0.118938 -1.734662,0.263695 -2.318129,0.843014 -0.57249,0.56842 -0.78189,1.452635 -0.843363,2.268559 -0.02052,0.27232 0.0036,0.553267 0.05436,0.793763 0.279186,1.322101 1.158953,3.369828 1.268215,3.827007 0.108588,0.454359 0.433359,0.989635 0.708845,1.539752 0.77956,1.556697 1.819821,3.230137 1.819821,3.230137 0,0 -3.203275,-2.820595 -4.204324,-4.656733 -0.972531,-1.78383 -2.025848,-3.899728 -1.589922,-5.884125 0.303912,-1.383451 1.452515,-2.639254 2.725725,-3.259927 z"
         sodipodi:nodetypes="aacaasssscaaa" />
      <path
         id="rect5-2"
         style="fill:#aa0000;fill-opacity:1;stroke-width:0.260567"
         d="m 124.06653,77.125286 c 0.32641,-0.889618 0.60837,-1.517696 0.66496,-2.762096 0.0498,-1.09537 -0.0102,-1.740739 -0.20116,-2.140724 -0.51417,-1.077165 -0.95348,-1.648239 -1.66153,-1.814767 -0.94869,-0.223129 -2.11041,0.845693 -2.60301,1.332904 -0.55045,0.544437 -1.1383,1.379593 -1.69529,1.907775 -0.70424,0.667818 -1.18514,1.418337 -2.14881,1.270211 -0.4367,-0.06713 -0.94395,-0.377677 -1.30266,-0.835079 -0.27578,-0.351621 -0.5074,-0.795909 -0.41324,-0.740981 0,0 0.77379,0.744365 0.93454,0.84251 0.11858,0.0724 0.44324,0.417833 0.77762,0.384302 0.34013,-0.03411 0.74029,-0.443251 1.0078,-0.720896 0.55027,-0.571113 0.59568,-0.706663 1.1015,-1.316708 0.55861,-0.673704 1.51186,-2.35261 2.24717,-2.832021 0.6118,-0.39889 1.74494,-1.018617 2.4509,-0.824922 1.45895,0.400291 2.00573,2.170068 2.35078,3.629326 0.22285,0.942511 -0.0259,2.548788 -0.25875,3.75416 -0.33052,1.709335 -0.96102,3.363899 -2.14747,4.6482 -1.03933,1.125048 -1.86484,1.698787 -3.19316,2.260206 -1.25429,0.530123 -3.73212,1.245909 -3.73212,1.245909 0,0 2.77751,-1.36093 4.01448,-2.184174 1.07077,-0.712629 2.07558,-1.513638 2.67411,-2.607756 0.47104,-0.861064 0.54414,-0.889572 1.13334,-2.495379 z"
         sodipodi:nodetypes="ssssssssssssssssssscsss"
         transform="translate(-53.541859,-0.6554841)" />
    </g>
    <path
       id="rect14"
       style="opacity:1;fill:#ffffff;stroke-width:0.264583"
       d="m 14.237713,7.3541169 c 0.347223,-0.485472 0.823738,-0.8654802 1.266139,-1.2661398 0.461268,-0.4177471 0.935437,-0.8247293 1.444086,-1.1832775 0.563146,-0.3969632 1.153885,-0.7594948 1.771209,-1.0654773 0.755574,-0.3745078 2.350564,-0.9355151 2.350564,-0.9355151 0,0 -1.456773,0.8720568 -2.117598,1.3135237 -0.596458,0.398466 -1.189361,0.7107935 -1.750826,1.1572172 -0.445605,0.3543026 -0.856765,0.7927604 -1.234741,1.1150173 -0.751472,0.6406945 -0.780372,0.7318195 -1.457517,1.4525005 -0.551298,0.586742 -1.492235,1.899209 -1.492235,1.899209 0,0 0.683662,-1.735889 1.220919,-2.487058 z"
       sodipodi:nodetypes="sssscsssscs" />
    <path
       id="rect15"
       style="opacity:1;fill:#ffffff;stroke-width:0.264583"
       d="m 29.544424,3.8496257 c 0,0 1.248233,-0.1929421 1.876618,-0.1821259 0.746297,0.012846 1.489903,0.137633 2.219988,0.2928755 0.464194,0.098704 0.925859,0.2246001 1.365135,0.4041972 0.407381,0.166557 0.802836,0.3708544 1.166001,0.6194751 0.365315,0.250093 0.678309,0.5695212 1.005264,0.8680208 0.324908,0.2966303 0.642681,0.6014375 0.949732,0.9165155 0.289258,0.29682 0.566994,0.604871 0.840034,0.916674 0.342531,0.391161 0.724287,0.756096 1.000831,1.196389 0.301129,0.479435 0.522787,1.009773 0.70033,1.5473741 0.178932,0.541809 0.361753,1.673112 0.361753,1.673112 0,0 -0.452762,-0.999994 -0.702817,-1.488345 C 40.080092,10.13101 39.843788,9.6390579 39.539644,9.1899699 39.255892,8.7709919 38.914409,8.3934009 38.578862,8.0146309 38.300349,7.7002409 37.997336,7.4084379 37.706573,7.1053419 37.40848,6.7946039 37.128361,6.4655642 36.812293,6.1731293 36.540511,5.9216694 36.265036,5.6687037 35.953471,5.4686414 35.605117,5.2449563 35.225567,5.0678876 34.837668,4.92325 34.415404,4.7657984 33.971958,4.668978 33.53083,4.5767582 32.796985,4.4233443 32.045057,4.3710021 31.307974,4.2339839 30.716458,4.1240254 29.544424,3.8496257 29.544424,3.8496257 Z"
       sodipodi:nodetypes="cssssssssscsssssssssc" />
  </g>
</svg>
